<?xml version="1.0" encoding="UTF-8"?>
<!DOCTYPE svg PUBLIC "-//W3C//DTD SVG 1.1//EN" "http://www.w3.org/Graphics/SVG/1.1/DTD/svg11.dtd">
<svg xmlns="http://www.w3.org/2000/svg" version="1.1" width="512px" height="512px" style="shape-rendering:geometricPrecision; text-rendering:geometricPrecision; image-rendering:optimizeQuality; fill-rule:evenodd; clip-rule:evenodd" xmlns:xlink="http://www.w3.org/1999/xlink">
<g><path style="opacity:0.958" fill="#fdd302" d="M 395.5,-0.5 C 396.833,-0.5 398.167,-0.5 399.5,-0.5C 400.466,10.1624 401.633,20.829 403,31.5C 404.536,42.6998 410.703,49.8665 421.5,53C 433.061,55.3845 444.727,57.0511 456.5,58C 457.38,59.3561 457.714,60.8561 457.5,62.5C 446.459,63.1937 435.459,64.3604 424.5,66C 418.098,67.0316 412.765,69.8649 408.5,74.5C 405.834,76.4894 404.167,79.156 403.5,82.5C 402.63,73.4027 398.963,65.5694 392.5,59C 386.79,56.0291 381.124,53.5291 375.5,51.5C 382.086,49.4158 386.586,45.0825 389,38.5C 392.212,25.6346 394.379,12.6346 395.5,-0.5 Z"/></g>
<g><path style="opacity:0.998" fill="#1f3595" d="M 374.5,51.5 C 372.123,52.8873 369.457,53.7206 366.5,54C 356.852,55.1651 347.186,56.1651 337.5,57C 336.483,58.0495 336.316,59.2161 337,60.5C 349.824,62.3726 362.657,64.5393 375.5,67C 384.638,70.7563 389.805,77.5896 391,87.5C 392.385,97.7919 393.385,108.125 394,118.5C 396.19,121.249 397.857,120.915 399,117.5C 399.521,105.691 401.021,94.0245 403.5,82.5C 404.167,79.156 405.834,76.4894 408.5,74.5C 451.39,108.904 479.724,152.904 493.5,206.5C 458.804,201.616 429.804,211.949 406.5,237.5C 404.07,232.907 402.57,227.907 402,222.5C 401.236,213.46 400.236,204.46 399,195.5C 397.667,194.167 396.333,194.167 395,195.5C 394.21,208.7 392.21,221.7 389,234.5C 386.135,241.018 381.301,245.351 374.5,247.5C 362.268,249.685 349.934,251.185 337.5,252C 336.483,253.049 336.316,254.216 337,255.5C 347.035,257.432 357.202,258.932 367.5,260C 376.353,260.914 383.02,265.081 387.5,272.5C 386.542,272.953 385.708,273.619 385,274.5C 383.185,280.723 382.019,287.056 381.5,293.5C 357.64,291.589 335.807,297.256 316,310.5C 305.845,292.179 291.678,277.846 273.5,267.5C 271.364,258.686 269.864,249.686 269,240.5C 279.632,227.534 291.299,215.534 304,204.5C 306.13,201.335 305.963,198.335 303.5,195.5C 287.614,192.397 271.614,189.897 255.5,188C 254.167,187.333 252.833,186.667 251.5,186C 243.284,171.069 235.45,155.902 228,140.5C 223.997,137.499 220.664,138.165 218,142.5C 211.605,156.289 204.939,169.956 198,183.5C 196.786,185.049 195.286,186.215 193.5,187C 187.32,187.947 181.32,189.114 175.5,190.5C 165.791,191.244 156.125,192.411 146.5,194C 141.466,196.148 140.299,199.648 143,204.5C 155.701,215.534 167.368,227.534 178,240.5C 176.822,252.238 174.988,263.904 172.5,275.5C 150.94,290.923 138.274,311.923 134.5,338.5C 132.774,336.058 131.274,333.391 130,330.5C 128.867,328.789 127.367,328.289 125.5,329C 121.346,335.474 117.846,342.307 115,349.5C 112.333,351.925 109.166,353.258 105.5,353.5C 99.4485,353.912 93.4485,354.745 87.5,356C 86.4464,357.388 86.2797,358.888 87,360.5C 88.045,361.373 88.8783,362.373 89.5,363.5C 71.9763,368.923 56.6429,377.923 43.5,390.5C 10.213,331.653 1.71295,269.32 18,203.5C 44.8333,114 103,55.8333 192.5,29C 256.115,13.2598 316.781,20.7598 374.5,51.5 Z"/></g>
<g><path style="opacity:1" fill="#f4c20b" d="M 374.5,51.5 C 374.833,51.5 375.167,51.5 375.5,51.5C 381.124,53.5291 386.79,56.0291 392.5,59C 398.963,65.5694 402.63,73.4027 403.5,82.5C 401.021,94.0245 399.521,105.691 399,117.5C 397.857,120.915 396.19,121.249 394,118.5C 393.385,108.125 392.385,97.7919 391,87.5C 389.805,77.5896 384.638,70.7563 375.5,67C 362.657,64.5393 349.824,62.3726 337,60.5C 336.316,59.2161 336.483,58.0495 337.5,57C 347.186,56.1651 356.852,55.1651 366.5,54C 369.457,53.7206 372.123,52.8873 374.5,51.5 Z"/></g>
<g><path style="opacity:1" fill="#f2f1f5" d="M 280.5,90.5 C 281.822,90.33 282.989,90.6634 284,91.5C 285.119,96.2391 287.619,100.072 291.5,103C 294.533,104.178 297.199,105.844 299.5,108C 299.355,108.772 299.022,109.439 298.5,110C 291.026,112.14 286.193,116.974 284,124.5C 282.667,125.833 281.333,125.833 280,124.5C 277.86,117.026 273.026,112.193 265.5,110C 264.978,109.439 264.645,108.772 264.5,108C 268.986,105.479 273.153,102.312 277,98.5C 278.456,95.9244 279.623,93.2577 280.5,90.5 Z"/></g>
<g><path style="opacity:1" fill="#f2f1f5" d="M 137.5,111.5 C 138.822,111.33 139.989,111.663 141,112.5C 142.119,117.239 144.619,121.072 148.5,124C 151.533,125.178 154.199,126.844 156.5,129C 156.355,129.772 156.022,130.439 155.5,131C 148.026,133.14 143.193,137.974 141,145.5C 139.667,146.833 138.333,146.833 137,145.5C 134.86,138.026 130.026,133.193 122.5,131C 121.978,130.439 121.645,129.772 121.5,129C 125.986,126.479 130.153,123.312 134,119.5C 135.456,116.924 136.623,114.258 137.5,111.5 Z"/></g>
<g><path style="opacity:1" fill="#fcd205" d="M 273.5,267.5 C 274.033,274.564 275.033,281.564 276.5,288.5C 276.706,292.458 274.873,294.792 271,295.5C 256.659,288.746 242.493,281.579 228.5,274C 225.167,273.333 221.833,273.333 218.5,274C 214.423,276.705 210.09,278.872 205.5,280.5C 204.503,280.53 203.836,280.03 203.5,279C 207.146,262.297 209.646,245.464 211,228.5C 198.94,215.943 187.106,203.277 175.5,190.5C 181.32,189.114 187.32,187.947 193.5,187C 195.286,186.215 196.786,185.049 198,183.5C 204.939,169.956 211.605,156.289 218,142.5C 220.664,138.165 223.997,137.499 228,140.5C 235.45,155.902 243.284,171.069 251.5,186C 252.833,186.667 254.167,187.333 255.5,188C 271.614,189.897 287.614,192.397 303.5,195.5C 305.963,198.335 306.13,201.335 304,204.5C 291.299,215.534 279.632,227.534 269,240.5C 269.864,249.686 271.364,258.686 273.5,267.5 Z"/></g>
<g><path style="opacity:1" fill="#ebecf5" d="M 347.5,156.5 C 358.681,160.524 359.181,165.524 349,171.5C 345.833,169.667 343.333,167.167 341.5,164C 343.32,161.348 345.32,158.848 347.5,156.5 Z"/></g>
<g><path style="opacity:1" fill="#f8c503" d="M 175.5,190.5 C 187.106,203.277 198.94,215.943 211,228.5C 209.646,245.464 207.146,262.297 203.5,279C 203.836,280.03 204.503,280.53 205.5,280.5C 196.281,286.277 186.615,291.277 176.5,295.5C 174.088,295.594 172.255,294.594 171,292.5C 170.838,286.794 171.338,281.127 172.5,275.5C 174.988,263.904 176.822,252.238 178,240.5C 167.368,227.534 155.701,215.534 143,204.5C 140.299,199.648 141.466,196.148 146.5,194C 156.125,192.411 165.791,191.244 175.5,190.5 Z"/></g>
<g><path style="opacity:1" fill="#f7cf10" d="M 406.5,237.5 C 408.653,241.817 411.986,244.984 416.5,247C 429.237,250.571 442.237,252.571 455.5,253C 456.833,254.333 456.833,255.667 455.5,257C 443.013,257.652 430.68,259.319 418.5,262C 410.585,264.414 405.585,269.581 403.5,277.5C 401.979,259.645 392.312,249.645 374.5,247.5C 381.301,245.351 386.135,241.018 389,234.5C 392.21,221.7 394.21,208.7 395,195.5C 396.333,194.167 397.667,194.167 399,195.5C 400.236,204.46 401.236,213.46 402,222.5C 402.57,227.907 404.07,232.907 406.5,237.5 Z"/></g>
<g><path style="opacity:0.997" fill="#2740af" d="M 493.5,206.5 C 513.801,300.412 489.801,380.912 421.5,448C 380.354,484.555 332.354,505.721 277.5,511.5C 262.833,511.5 248.167,511.5 233.5,511.5C 150.618,501.417 87.2843,461.084 43.5,390.5C 56.6429,377.923 71.9763,368.923 89.5,363.5C 94.4646,367.963 99.2979,372.63 104,377.5C 103.108,386.518 102.108,395.518 101,404.5C 101.689,405.357 102.522,406.023 103.5,406.5C 109.22,403.979 114.553,400.979 119.5,397.5C 122.035,396.651 124.535,395.651 127,394.5C 134.052,397.609 140.886,401.109 147.5,405C 149.167,405.667 150.833,405.667 152.5,405C 153.059,404.275 153.392,403.442 153.5,402.5C 151.673,394.214 150.507,385.88 150,377.5C 156.415,371.589 162.249,365.256 167.5,358.5C 167.182,357.353 166.516,356.519 165.5,356C 157.395,355.094 149.395,353.76 141.5,352C 137.978,348.122 135.644,343.622 134.5,338.5C 138.274,311.923 150.94,290.923 172.5,275.5C 171.338,281.127 170.838,286.794 171,292.5C 172.255,294.594 174.088,295.594 176.5,295.5C 186.615,291.277 196.281,286.277 205.5,280.5C 210.09,278.872 214.423,276.705 218.5,274C 221.833,273.333 225.167,273.333 228.5,274C 242.493,281.579 256.659,288.746 271,295.5C 274.873,294.792 276.706,292.458 276.5,288.5C 275.033,281.564 274.033,274.564 273.5,267.5C 291.678,277.846 305.845,292.179 316,310.5C 335.807,297.256 357.64,291.589 381.5,293.5C 382.019,287.056 383.185,280.723 385,274.5C 385.708,273.619 386.542,272.953 387.5,272.5C 388.958,276.041 390.124,279.708 391,283.5C 392.22,293.476 393.22,303.476 394,313.5C 395.079,315.394 396.413,315.727 398,314.5C 399.137,302.04 400.97,289.707 403.5,277.5C 405.585,269.581 410.585,264.414 418.5,262C 430.68,259.319 443.013,257.652 455.5,257C 456.833,255.667 456.833,254.333 455.5,253C 442.237,252.571 429.237,250.571 416.5,247C 411.986,244.984 408.653,241.817 406.5,237.5C 429.804,211.949 458.804,201.616 493.5,206.5 Z"/></g>
<g><path style="opacity:1" fill="#f4c20c" d="M 374.5,247.5 C 392.312,249.645 401.979,259.645 403.5,277.5C 400.97,289.707 399.137,302.04 398,314.5C 396.413,315.727 395.079,315.394 394,313.5C 393.22,303.476 392.22,293.476 391,283.5C 390.124,279.708 388.958,276.041 387.5,272.5C 383.02,265.081 376.353,260.914 367.5,260C 357.202,258.932 347.035,257.432 337,255.5C 336.316,254.216 336.483,253.049 337.5,252C 349.934,251.185 362.268,249.685 374.5,247.5 Z"/></g>
<g><path style="opacity:1" fill="#f5c70b" d="M 103.5,241.5 C 104.822,241.33 105.989,241.663 107,242.5C 108.119,247.239 110.619,251.072 114.5,254C 117.533,255.178 120.199,256.844 122.5,259C 122.355,259.772 122.022,260.439 121.5,261C 114,263.167 109.167,268 107,275.5C 105.667,276.833 104.333,276.833 103,275.5C 100.833,268 96,263.167 88.5,261C 87.1667,259.667 87.1667,258.333 88.5,257C 96.3921,254.608 101.392,249.442 103.5,241.5 Z"/></g>
<g><path style="opacity:1" fill="#ebecf5" d="M 51.5,314.5 C 62.6811,318.524 63.1811,323.524 53,329.5C 49.8333,327.667 47.3333,325.167 45.5,322C 47.3198,319.348 49.3198,316.848 51.5,314.5 Z"/></g>
<g><path style="opacity:1" fill="#fad10c" d="M 134.5,338.5 C 135.644,343.622 137.978,348.122 141.5,352C 149.395,353.76 157.395,355.094 165.5,356C 166.516,356.519 167.182,357.353 167.5,358.5C 162.249,365.256 156.415,371.589 150,377.5C 150.507,385.88 151.673,394.214 153.5,402.5C 153.392,403.442 153.059,404.275 152.5,405C 150.833,405.667 149.167,405.667 147.5,405C 140.886,401.109 134.052,397.609 127,394.5C 124.535,395.651 122.035,396.651 119.5,397.5C 118.853,396.726 118.52,395.726 118.5,394.5C 119.837,386.844 120.67,379.177 121,371.5C 115.968,366.133 110.635,361.133 105,356.5C 104.53,355.423 104.697,354.423 105.5,353.5C 109.166,353.258 112.333,351.925 115,349.5C 117.846,342.307 121.346,335.474 125.5,329C 127.367,328.289 128.867,328.789 130,330.5C 131.274,333.391 132.774,336.058 134.5,338.5 Z"/></g>
<g><path style="opacity:1" fill="#f6c70c" d="M 318.5,331.5 C 319.822,331.33 320.989,331.663 322,332.5C 324.167,340 329,344.833 336.5,347C 337.833,348.333 337.833,349.667 336.5,351C 329.026,353.14 324.193,357.974 322,365.5C 320.667,366.833 319.333,366.833 318,365.5C 315.86,358.026 311.026,353.193 303.5,351C 302.978,350.439 302.645,349.772 302.5,349C 306.986,346.479 311.153,343.312 315,339.5C 316.456,336.924 317.623,334.258 318.5,331.5 Z"/></g>
<g><path style="opacity:1" fill="#ecedf8" d="M 217.5,345.5 C 228.681,349.524 229.181,354.524 219,360.5C 215.833,358.667 213.333,356.167 211.5,353C 213.32,350.348 215.32,347.848 217.5,345.5 Z"/></g>
<g><path style="opacity:1" fill="#f6c408" d="M 105.5,353.5 C 104.697,354.423 104.53,355.423 105,356.5C 110.635,361.133 115.968,366.133 121,371.5C 120.67,379.177 119.837,386.844 118.5,394.5C 118.52,395.726 118.853,396.726 119.5,397.5C 114.553,400.979 109.22,403.979 103.5,406.5C 102.522,406.023 101.689,405.357 101,404.5C 102.108,395.518 103.108,386.518 104,377.5C 99.2979,372.63 94.4646,367.963 89.5,363.5C 88.8783,362.373 88.045,361.373 87,360.5C 86.2797,358.888 86.4464,357.388 87.5,356C 93.4485,354.745 99.4485,353.912 105.5,353.5 Z"/></g>
<g><path style="opacity:1" fill="#ecedf8" d="M 400.5,366.5 C 411.681,370.524 412.181,375.524 402,381.5C 398.833,379.667 396.333,377.167 394.5,374C 396.32,371.348 398.32,368.848 400.5,366.5 Z"/></g>
<g><path style="opacity:1" fill="#f2f1f5" d="M 241.5,409.5 C 242.822,409.33 243.989,409.663 245,410.5C 247.167,418 252,422.833 259.5,425C 260.022,425.561 260.355,426.228 260.5,427C 258.199,429.156 255.533,430.822 252.5,432C 249.184,436.171 246.017,440.338 243,444.5C 242.228,444.355 241.561,444.022 241,443.5C 240.275,441.051 239.275,438.717 238,436.5C 234.153,432.688 229.986,429.521 225.5,427C 229.662,423.983 233.829,420.816 238,417.5C 239.456,414.924 240.623,412.258 241.5,409.5 Z"/></g>
<g><path style="opacity:1" fill="#ecedf8" d="M 339.5,421.5 C 350.681,425.524 351.181,430.524 341,436.5C 337.833,434.667 335.333,432.167 333.5,429C 335.32,426.348 337.32,423.848 339.5,421.5 Z"/></g>
<g><path style="opacity:1" fill="#ecedf8" d="M 167.5,438.5 C 178.681,442.524 179.181,447.524 169,453.5C 165.833,451.667 163.333,449.167 161.5,446C 163.32,443.348 165.32,440.848 167.5,438.5 Z"/></g>
</svg>
